<svg width="42" height="39" viewBox="0 0 42 39" fill="none" xmlns="http://www.w3.org/2000/svg">
<path d="M25.0599 3.38872C22.5444 1.40202 18.9941 1.40202 16.4786 3.38871L3.02442 14.0148C2.0283 14.8015 2.58461 16.4035 3.85394 16.4035C4.5931 16.4035 5.19231 17.0027 5.19231 17.7418V33.0824C5.19231 35.9501 7.51698 38.2747 10.3846 38.2747C13.2522 38.2747 15.5769 35.9501 15.5769 33.0824V32.5314C15.5769 29.6638 17.9016 27.3391 20.7692 27.3391C23.6369 27.3391 25.9615 29.6638 25.9615 32.5314V33.0824C25.9615 35.9501 28.2862 38.2747 31.1538 38.2747C34.0215 38.2747 36.3462 35.9501 36.3462 33.0824V17.5583C36.3462 16.8367 36.9432 16.2583 37.6643 16.2811C38.896 16.32 39.4637 14.7648 38.4967 14.0011L25.0599 3.38872Z" fill="white"/>
</svg>
